# xmcd
#
# Track frame offsets: 
#        150
#        14750
#        33251
#        64931
#        83316
#        106901
#        126293
#        143393
#        160920
#        179100
#        194544
#        214231
#        230253
#        256719
#        280044
#        301332
#        322603
#        340994
#
# Disc length: 4778 seconds
#
# Revision: 0
# Processed by: cddbd v1.5.2PL0 Copyright (c) Steve Scherf et al.
# Submitted via: ExactAudioCopy v1.3
#
DISCID=f212a812
DTITLE=Various Artist - Akella Presents - vol.192 - Rockin' Blues  CD
DTITLE=2
DYEAR=2019
DGENRE=Blues
TTITLE0=Woods and Taylor - Worn Out Shoes
TTITLE1=The Dapper Band - Uncool Blues
TTITLE2=The Alabama Lovesnakes - Something For The Pain
TTITLE3=Kerry Kearney - Wake Me, Shake Me, Bake Me
TTITLE4=Bobby Mack - Neighbor Neighbor
TTITLE5=Jimmy Barnes - Waitin' On A Plane
TTITLE6=Chris Bevington Organisation - She Ran Away To The City
TTITLE7=Aches and Trains - Broken Down
TTITLE8=Dick LeMasters - I Play with Fire
TTITLE9=Michael Barclay - Diary of the Blues
TTITLE10=Greg Copeland - If You Ever Leave Me
TTITLE11=Ray Fuller and  Bluesrockers - Don't Leave The Man You Love
TTITLE12=Hammerheads - Carry That Weight
TTITLE13=Uni Debess - Hoochie Coochie Man
TTITLE14=The Allman Betts Band - Down To The River
TTITLE15=Dave Steffen Band - Heading To The Top
TTITLE16=The Moon Dogs - I'm Ready
TTITLE17=Alvaro Assmar - I'm Not Ready to Die
EXTD=
EXTT0=
EXTT1=
EXTT2=
EXTT3=
EXTT4=
EXTT5=
EXTT6=
EXTT7=
EXTT8=
EXTT9=
EXTT10=
EXTT11=
EXTT12=
EXTT13=
EXTT14=
EXTT15=
EXTT16=
EXTT17=
PLAYORDER=
